<svg width="108" height="60" viewBox="0 0 108 60" fill="none" xmlns="http://www.w3.org/2000/svg">
<rect x="0.5" y="0.5" width="107" height="59" rx="4.5" stroke="#9747FF" stroke-dasharray="10 5"/>
<g opacity="0.4">
<path d="M35.9512 21.0566C37.407 20.8433 39.0058 21.2024 40.4287 22.5732C42.7316 24.7919 42.3044 28.2394 40.4248 30.0693L31.5 38.6025L22.5742 30.0693H22.5752C20.6956 28.2394 20.2684 24.7919 22.5713 22.5732C23.9942 21.2024 25.593 20.8433 27.0488 21.0566C28.5402 21.2752 29.8955 22.1 30.7266 23.1152L31.5 24.0605L32.2734 23.1152C33.1045 22.1 34.4598 21.2752 35.9512 21.0566Z" stroke="#212121" stroke-width="2"/>
</g>
<path d="M80.9512 21.0566C82.407 20.8433 84.0058 21.2024 85.4287 22.5732C87.7316 24.7919 87.3044 28.2394 85.4248 30.0693L76.5 38.6025L67.5742 30.0693H67.5752C65.6956 28.2394 65.2684 24.7919 67.5713 22.5732C68.9942 21.2024 70.593 20.8433 72.0488 21.0566C73.5402 21.2752 74.8955 22.1 75.7266 23.1152L76.5 24.0605L77.2734 23.1152C78.1045 22.1 79.4598 21.2752 80.9512 21.0566Z" stroke="#212121" stroke-width="2"/>
</svg>
